<svg width="35" height="39" viewBox="0 0 35 39" fill="none" xmlns="http://www.w3.org/2000/svg">
<path d="M27.3113 19.9053C30.24 19.9053 32.623 22.191 32.623 25C32.623 26.0268 32.3039 27.0191 31.7069 27.8632L27.9547 34.0983C27.8208 34.3205 27.5789 34.4587 27.3113 34.4587C27.0436 34.4587 26.8017 34.3254 26.6679 34.0983L22.9105 27.8435C22.3495 26.8512 22.0047 26.0268 22.0047 25C21.9995 22.191 24.3826 19.9053 27.3113 19.9053ZM22.7047 25C22.7047 25.8836 23.0186 26.6192 23.523 27.5226L27.2701 33.7626C27.2804 33.7774 27.2907 33.7824 27.3061 33.7824C27.3164 33.7824 27.3319 33.7824 27.3422 33.7626L31.0944 27.5276L31.1098 27.5029C31.6348 26.7624 31.9179 25.8984 31.9179 25.0049C31.9179 22.5662 29.8488 20.5865 27.3113 20.5865C24.7738 20.5816 22.7047 22.5662 22.7047 25Z" fill="black"/>
<path d="M6.56857 1.33301C8.77666 1.33301 10.5781 3.05592 10.5781 5.1787C10.5781 5.95377 10.3362 6.69921 9.88842 7.33605L7.06783 12.016C6.96489 12.1888 6.77445 12.2925 6.56857 12.2925C6.35754 12.2925 6.17224 12.1888 6.0693 12.016L3.24871 7.32124C2.82665 6.57086 2.5693 5.95377 2.5693 5.1787C2.56415 3.05592 4.36048 1.33301 6.56857 1.33301ZM6.49136 11.7791L6.57886 11.7396L9.39945 7.05465L9.40974 7.03491C9.80607 6.482 10.0119 5.84022 10.0119 5.16883C10.0119 3.34718 8.46783 1.86617 6.56857 1.86617C4.6693 1.86617 3.13033 3.34718 3.13033 5.16883C3.13033 5.82541 3.36709 6.37832 3.74283 7.05465L6.55827 11.7396L6.49136 11.7791Z" fill="black"/>
<path d="M26.1581 36.3883C26.8993 36.3883 27.3316 36.3735 27.3316 36.3735C27.5838 36.3636 27.7794 36.1612 27.7691 35.9193C27.7588 35.6774 27.5427 35.4898 27.2956 35.4948C27.2905 35.4948 26.8736 35.5096 26.1581 35.5096C25.35 35.5096 24.5162 35.4948 23.6772 35.4602C23.4302 35.4503 23.214 35.6379 23.2037 35.8798C23.1934 36.1217 23.389 36.3241 23.6412 36.334C24.4905 36.3735 25.3346 36.3883 26.1581 36.3883ZM20.0074 36.0872C20.239 36.0872 20.4346 35.9193 20.4603 35.6922C20.4861 35.4503 20.3059 35.2381 20.0537 35.2134C18.7824 35.085 17.578 34.9172 16.4713 34.7197C16.2243 34.6753 15.9824 34.8283 15.9361 35.0702C15.8897 35.3072 16.0493 35.5392 16.2963 35.5836C17.4236 35.791 18.6537 35.9588 19.9508 36.0921C19.9765 36.0872 19.9919 36.0872 20.0074 36.0872ZM12.8478 34.7246C13.0383 34.7246 13.2184 34.6111 13.2802 34.4235C13.3625 34.1964 13.2338 33.9447 12.9919 33.8706C11.7206 33.4658 10.65 32.982 9.80076 32.439C9.58973 32.3057 9.30664 32.36 9.16767 32.5624C9.0287 32.7648 9.08532 33.0363 9.29635 33.1696C10.2125 33.7571 11.3603 34.2705 12.7037 34.7C12.75 34.7148 12.8015 34.7246 12.8478 34.7246ZM7.24267 30.6173C7.28385 30.6173 7.32502 30.6124 7.37135 30.6025C7.61326 30.5334 7.75223 30.2915 7.68532 30.0595C7.61841 29.8324 7.58238 29.5954 7.58238 29.3584C7.58238 28.6722 7.88091 27.9317 8.46252 27.1665C8.61179 26.9691 8.56546 26.6976 8.35958 26.5544C8.1537 26.4112 7.87061 26.4557 7.72135 26.6482C7.02135 27.5714 6.6662 28.4847 6.6662 29.3584C6.6662 29.6793 6.71252 29.9953 6.80517 30.3014C6.86179 30.4939 7.04193 30.6173 7.24267 30.6173ZM10.7118 24.9154C10.8044 24.9154 10.9022 24.8858 10.9846 24.8266C11.8544 24.1996 12.8736 23.5726 14.0111 22.9605C14.2324 22.842 14.3096 22.5754 14.1861 22.3631C14.0625 22.1509 13.7846 22.0768 13.5633 22.1953C12.3897 22.8222 11.3346 23.4739 10.4338 24.1255C10.2331 24.2687 10.1919 24.5452 10.3412 24.7377C10.4338 24.8562 10.5728 24.9154 10.7118 24.9154ZM17.0066 21.361C17.1096 21.361 17.2177 21.3264 17.3 21.2573C17.9897 20.6995 19.2044 19.5739 19.6162 18.2854C19.6883 18.0534 19.5544 17.8115 19.3125 17.7374C19.0706 17.6683 18.8133 17.7967 18.7412 18.0287C18.3809 19.1444 17.1971 20.191 16.7081 20.5909C16.5177 20.7488 16.4919 21.0253 16.6566 21.2079C16.7493 21.3067 16.878 21.361 17.0066 21.361ZM17.7993 15.6739C17.9537 15.6739 18.103 15.5998 18.1853 15.4666C18.3191 15.2592 18.2522 14.9926 18.0412 14.8643C17.1868 14.3558 15.9927 13.9312 14.4897 13.6054C14.2427 13.5511 14.0008 13.6992 13.9441 13.9362C13.8875 14.1731 14.0419 14.4052 14.289 14.4595C15.689 14.7606 16.7905 15.1506 17.5574 15.6097C17.6346 15.6492 17.7169 15.6739 17.7993 15.6739ZM10.789 13.9263C11.0206 13.9263 11.2162 13.7584 11.2419 13.5314C11.2677 13.2895 11.0875 13.0772 10.8353 13.0525C9.72355 12.939 8.48826 12.86 7.16546 12.8057C7.16032 12.8057 7.15517 12.8057 7.14487 12.8057C6.90296 12.8057 6.69708 12.9883 6.69194 13.2253C6.68164 13.4672 6.87723 13.6696 7.12943 13.6795C8.43679 13.7288 9.65149 13.8128 10.7427 13.9214C10.7581 13.9263 10.7736 13.9263 10.789 13.9263Z" fill="black"/>
<path d="M27.3711 22.6299C28.7865 22.6299 29.9395 23.7357 29.9395 25.0933C29.9395 26.4509 28.7865 27.5567 27.3711 27.5567C25.9556 27.5567 24.8027 26.4509 24.8027 25.0933C24.8027 23.7357 25.9556 22.6299 27.3711 22.6299ZM27.3711 26.8063C28.3542 26.8063 29.152 26.0411 29.152 25.0982C29.152 24.1553 28.3542 23.3901 27.3711 23.3901C26.388 23.3901 25.5902 24.1553 25.5902 25.0982C25.585 26.0362 26.388 26.8063 27.3711 26.8063Z" fill="black"/>
<path d="M6.56806 7.10401C7.60777 7.10401 8.45703 6.28946 8.45703 5.29224C8.45703 4.29503 7.60777 3.48047 6.56806 3.48047C5.52836 3.48047 4.67909 4.29503 4.67909 5.29224C4.67909 6.28946 5.52836 7.10401 6.56806 7.10401ZM6.56806 4.063C7.27321 4.063 7.84968 4.61591 7.84968 5.29224C7.84968 5.96857 7.27321 6.52148 6.56806 6.52148C5.86291 6.52148 5.28644 5.96857 5.28644 5.29224C5.28644 4.61591 5.86291 4.063 6.56806 4.063Z" fill="black"/>
</svg>
